<svg width="176" height="48" viewBox="0 0 176 48" fill="none" xmlns="http://www.w3.org/2000/svg">
<g clip-path="url(#clip0_8988_20066)">
<rect x="12.2722" y="8" width="32" height="32" rx="8" fill="white"/>
<rect x="12.2722" y="8" width="32" height="32" fill="url(#paint0_linear_8988_20066)"/>
<path fill-rule="evenodd" clip-rule="evenodd" d="M25.2115 29.4971C24.3161 29.0667 23.5346 28.4249 22.9351 27.6169C21.3113 27.4885 20.598 25.4498 21.8121 24.3624C23.36 22.9731 25.6592 24.6569 24.8093 26.5447C25.6744 27.5792 27.0478 28.1077 28.3984 27.9265C28.5502 27.9265 28.7247 27.8283 28.8613 27.9265C28.9068 27.9718 28.9372 28.0322 28.9372 28.1002V29.8218C28.9372 29.8268 28.9372 29.8344 28.9372 29.8444V33.3406C33.49 32.8875 37.1929 28.9232 37.3067 24.37C36.3354 23.7206 36.214 22.2406 37.0791 21.4629C37.5571 20.9872 38.3235 20.8135 38.9609 21.0249C40.4557 21.478 40.744 23.5243 39.4541 24.3775C39.363 30.1465 34.5295 35.1377 28.7627 35.5001C28.7525 35.5052 28.7424 35.5077 28.7323 35.5077C28.1632 35.5454 27.5789 35.5454 26.9947 35.5001C26.9188 35.5001 26.8581 35.4548 26.8201 35.3944C26.805 35.3642 26.7974 35.329 26.7974 35.2887V30.003C26.2435 29.9049 25.7123 29.7312 25.2115 29.4971ZM21.7438 33.7936C21.7969 34.7526 22.6619 35.5605 23.6332 35.5379C24.65 35.5605 25.553 34.6695 25.5226 33.6577C25.5302 33.5142 25.5074 33.3632 25.4695 33.2122C25.4695 33.2072 25.4695 33.1996 25.4695 33.1895C25.2039 32.0644 23.8608 31.4377 22.8213 31.9512C18.9363 29.6028 17.32 24.3851 19.2018 20.2547C22.2471 22.0015 23.7698 22.8749 23.7698 22.8749C23.8836 22.9504 24.043 22.89 24.0885 22.7541C24.263 22.2331 24.5362 21.7574 24.908 21.3496C25.4923 20.7002 26.3193 20.2472 27.1768 20.0961C28.3833 21.7573 31.0011 20.6474 30.5838 18.6237C30.2575 17.0304 28.1025 16.6 27.1844 17.9366C25.6364 18.1027 24.1719 18.888 23.1779 20.0735L18.5796 17.4306C18.5341 17.408 18.4734 17.4004 18.4203 17.408C18.3672 17.4231 18.3216 17.4533 18.2837 17.4986C18.0788 17.8082 17.8739 18.148 17.6463 18.5784C17.2821 19.2202 17.0089 19.9074 16.7813 20.6323C15.2257 25.5026 17.3352 31.1583 21.7438 33.7936ZM38.3159 18.9937C38.1945 18.737 38.0579 18.4802 37.9137 18.231C34.8786 12.885 27.8066 10.8688 22.404 13.8288C21.0305 13.1492 19.3915 14.3876 19.7254 15.8902C19.7558 16.0941 19.8392 16.2829 19.9379 16.4641C20.1807 16.8794 20.5828 17.2041 21.0533 17.3249C21.0584 17.33 21.0659 17.3325 21.0761 17.3325C22.1763 17.6723 23.4056 16.819 23.4739 15.6788C27.5031 13.5343 32.7615 14.7198 35.4628 18.4047C32.4175 20.1515 30.8949 21.0249 30.8949 21.0249C30.7735 21.0929 30.7507 21.2665 30.8418 21.3647C31.0163 21.561 31.1832 21.7876 31.3122 22.0216C31.9041 23.0108 32.0103 24.2718 31.6081 25.3667C30.1588 25.4649 29.3469 27.2092 30.2499 28.3645C30.4851 28.6816 30.8038 28.9081 31.1832 29.0289C32.7312 29.55 34.1956 27.9038 33.4748 26.439C34.1046 25.0269 34.1577 23.3733 33.6265 21.9235L38.2248 19.2806C38.3235 19.2278 38.369 19.0994 38.3159 18.9937Z" fill="white"/>
</g>
<path fill-rule="evenodd" clip-rule="evenodd" d="M63.834 22.9458C63.834 26.4201 61.4532 29.2364 57.5434 29.2364C53.6239 29.2364 51.2722 26.4201 51.2722 22.9458C51.2722 19.5005 53.6723 16.6553 57.5144 16.6553C61.3565 16.6553 63.834 19.5005 63.834 22.9458ZM54.2626 22.9458C54.2626 24.7846 55.3659 26.4976 57.5434 26.4976C59.7209 26.4976 60.8242 24.7846 60.8242 22.9458C60.8242 21.1361 59.5467 19.3747 57.5434 19.3747C55.3853 19.3747 54.2626 21.1361 54.2626 22.9458Z" fill="#171C33"/>
<path fill-rule="evenodd" clip-rule="evenodd" d="M66.3314 34.4999V16.8961H69.1186L69.3122 18.5606C70.2412 17.2154 71.8574 16.6348 73.2317 16.6348C76.9479 16.6348 79.4255 19.3929 79.4255 22.9447C79.4255 26.4674 77.1899 29.2643 73.3285 29.2643C72.051 29.2643 70.1735 28.8675 69.3122 27.5513V34.4999H66.3314ZM76.4447 22.9447C76.4447 21.0575 75.1672 19.5187 73.0188 19.5187C70.8606 19.5187 69.5832 21.0575 69.5832 22.9447C69.5832 24.8318 70.9864 26.3706 73.0188 26.3706C75.0414 26.3706 76.4447 24.8318 76.4447 22.9447Z" fill="#171C33"/>
<path d="M89.5003 20.1096C88.6486 19.2967 87.6712 19.0257 86.5195 19.0257C85.0969 19.0257 84.313 19.4709 84.313 20.2257C84.313 21.0096 85.0291 21.4548 86.5679 21.5516C88.8422 21.6968 91.7358 22.2097 91.7358 25.4227C91.7358 27.5518 89.9938 29.3809 86.5389 29.3809C84.6323 29.3809 82.7258 29.0615 80.9645 27.2324L82.4355 25.1033C83.5775 26.3034 85.242 26.7679 86.5872 26.7873C87.7195 26.8163 88.7744 26.3518 88.7744 25.4711C88.7744 24.6388 88.0873 24.1743 86.3743 24.0678C84.0904 23.9033 81.3806 23.071 81.3806 20.3322C81.3806 17.5353 84.2646 16.5579 86.4711 16.5579C88.3583 16.5579 89.7712 16.9256 91.1648 18.145L89.5003 20.1096Z" fill="#171C33"/>
<path d="M98.4128 13.5V16.9259H101.742V19.5002H98.3838V24.7069C98.3838 25.8585 99.0225 26.4198 99.9516 26.4198C100.416 26.4198 100.958 26.2747 101.394 26.0521L102.226 28.5973C101.374 28.9457 100.658 29.0909 99.758 29.1102C97.1353 29.207 95.4224 27.7166 95.4224 24.7069V19.5002H93.1771V16.9259H95.4224V13.8194L98.4128 13.5Z" fill="#171C33"/>
<path d="M106.996 16.8966L107.218 18.2999C108.147 16.7998 109.396 16.5869 110.625 16.5869C111.873 16.5869 113.073 17.0708 113.732 17.7289L112.386 20.3322C111.777 19.8096 111.206 19.5483 110.228 19.5483C108.66 19.5483 107.218 20.3806 107.218 22.6065V28.9648H104.238V16.8966H106.996Z" fill="#171C33"/>
<path fill-rule="evenodd" clip-rule="evenodd" d="M117.382 24.0006C117.575 25.491 118.872 26.5652 120.972 26.5652C122.075 26.5652 123.517 26.1491 124.205 25.4426L126.111 27.3298C124.843 28.646 122.763 29.2847 120.924 29.2847C116.762 29.2847 114.295 26.7201 114.295 22.849C114.295 19.1811 116.791 16.5391 120.711 16.5391C124.747 16.5391 127.263 19.0262 126.798 24.0006H117.382ZM123.943 21.5231C123.75 19.965 122.521 19.1811 120.808 19.1811C119.192 19.1811 117.875 19.965 117.43 21.5231H123.943Z" fill="#171C33"/>
<path fill-rule="evenodd" clip-rule="evenodd" d="M138.74 16.8979H141.604V28.9661H138.788L138.643 27.2047C137.956 28.6273 136.078 29.3145 134.733 29.3338C131.152 29.3629 128.51 27.1563 128.51 22.9271C128.51 18.7657 131.278 16.5882 134.801 16.6075C136.417 16.6075 137.956 17.3721 138.643 18.5625L138.74 16.8979ZM131.501 22.9271C131.501 25.2208 133.088 26.595 135.072 26.595C139.766 26.595 139.766 19.2786 135.072 19.2786C133.088 19.2786 131.501 20.6238 131.501 22.9271Z" fill="#171C33"/>
<path d="M152.86 28.9654V22.5103C152.86 20.9135 152.027 19.4715 150.392 19.4715C148.776 19.4715 147.818 20.9135 147.818 22.5103V28.9654H144.837V16.8779H147.605L147.818 18.3489C148.456 17.1198 149.85 16.6843 151.002 16.6843C152.444 16.6843 153.895 17.265 154.573 18.9296C155.657 17.2166 157.05 16.7327 158.618 16.7327C162.044 16.7327 163.728 18.8328 163.728 22.462V28.9654H160.747V22.462C160.747 20.8651 160.079 19.5199 158.463 19.5199C156.857 19.5199 155.85 20.9135 155.85 22.5103V28.9654H152.86Z" fill="#171C33"/>
<defs>
<linearGradient id="paint0_linear_8988_20066" x1="28.2722" y1="8" x2="28.2722" y2="40" gradientUnits="userSpaceOnUse">
<stop stop-color="#1AA9DB"/>
<stop offset="1" stop-color="#2FBC88"/>
</linearGradient>
<clipPath id="clip0_8988_20066">
<rect x="12.2722" y="8" width="32" height="32" rx="8" fill="white"/>
</clipPath>
</defs>
</svg>
